<svg width="33" height="32" viewBox="0 0 33 32" fill="none" xmlns="http://www.w3.org/2000/svg">
<g clip-path="url(#clip0_81_887)">

<path d="M28.9916 19.0082L29.4281 19.1937L29.4349 19.1967C29.7413 19.328 30.0481 19.47 30.3549 19.6234C30.9781 19.935 31.4644 20.3908 31.8177 20.9935C32.1726 21.5991 32.35 22.2557 32.35 22.9672V26.4164H28.85V18.9564C28.8974 18.9742 28.9452 18.99 28.9916 19.0082ZM16.6 17.5834C18.0461 17.5834 19.4702 17.7582 20.8724 18.1088V18.1097H20.8763C22.2776 18.4382 23.6586 18.9416 25.0189 19.6215V19.6224C25.6199 19.9334 26.096 20.3887 26.4506 20.9935L26.4564 21.0023C26.8297 21.5831 27.0169 22.2246 27.017 22.933V26.4164H6.18298V22.933C6.18305 22.2224 6.36007 21.5794 6.71228 20.9984C7.08951 20.3907 7.57875 19.9341 8.18103 19.6224L8.18005 19.6215C9.54066 18.9414 10.9221 18.4382 12.3236 18.1097L12.3275 18.1088C13.7298 17.7582 15.1539 17.5834 16.6 17.5834ZM4.34998 26.4164H0.849976V22.9672L0.858765 22.7025C0.897541 22.092 1.07167 21.5234 1.3822 20.9935C1.73555 20.3908 2.22183 19.935 2.84509 19.6234C3.1518 19.4701 3.44745 19.328 3.73181 19.1967C3.93271 19.1106 4.13929 19.0312 4.34998 18.9545V26.4164ZM16.6 19.7504C15.3358 19.7504 14.083 19.9075 12.8422 20.223C11.6 20.5166 10.3707 20.9685 9.15466 21.5765L9.1449 21.5814C8.90841 21.7129 8.71319 21.897 8.55896 22.1283L8.5531 22.1361L8.54822 22.1449C8.41512 22.3845 8.35003 22.6492 8.34998 22.933V24.2504H24.85V22.933C24.8499 22.6467 24.7716 22.3825 24.6176 22.1449H24.6185C24.5182 21.9644 24.3869 21.8126 24.226 21.6918L24.0551 21.5814L24.0453 21.5765L23.5883 21.3558C22.6738 20.9292 21.7518 20.591 20.8226 20.3412L20.3578 20.223C19.117 19.9075 17.8642 19.7504 16.6 19.7504ZM5.93298 9.58337C6.97855 9.58337 7.85985 9.94676 8.59021 10.6771C9.32035 11.4074 9.68298 12.288 9.68298 13.3334C9.68298 14.3788 9.32035 15.2593 8.59021 15.9896C7.85985 16.72 6.97855 17.0834 5.93298 17.0834C4.88756 17.0833 4.00702 16.7199 3.27673 15.9896C2.54648 15.2593 2.18298 14.3789 2.18298 13.3334C2.18298 12.2879 2.54648 11.4075 3.27673 10.6771C4.00702 9.94684 4.88756 9.58345 5.93298 9.58337ZM27.267 9.58337C28.3124 9.58345 29.1929 9.94684 29.9232 10.6771C30.6535 11.4075 31.017 12.2879 31.017 13.3334C31.017 14.3789 30.6535 15.2593 29.9232 15.9896C29.1929 16.7199 28.3124 17.0833 27.267 17.0834C26.2214 17.0834 25.3401 16.72 24.6097 15.9896C23.8796 15.2593 23.517 14.3788 23.517 13.3334C23.517 12.288 23.8796 11.4074 24.6097 10.6771C25.3401 9.94676 26.2214 9.58337 27.267 9.58337ZM16.6 5.58337C17.9997 5.58337 19.1919 6.07871 20.1898 7.07654C21.1877 8.07439 21.6829 9.26669 21.683 10.6664C21.683 12.0661 21.1876 13.2583 20.1898 14.2562C19.1919 15.2542 17.9998 15.7504 16.6 15.7504C15.2001 15.7504 14.0081 15.2542 13.0101 14.2562C12.0123 13.2583 11.517 12.0661 11.517 10.6664C11.517 9.26669 12.0123 8.07439 13.0101 7.07654C14.008 6.07871 15.2002 5.58337 16.6 5.58337ZM5.93298 11.7504C5.48917 11.7504 5.10299 11.9095 4.78943 12.223C4.49358 12.5189 4.34998 12.8961 4.34998 13.3334C4.34998 13.7707 4.49387 14.1541 4.78259 14.4691L4.78943 14.4769L4.79724 14.4847C5.11214 14.7734 5.49584 14.9163 5.93298 14.9164C6.37024 14.9164 6.74744 14.7728 7.04333 14.4769C7.35698 14.1633 7.51697 13.7773 7.51697 13.3334C7.51697 12.8962 7.36078 12.5229 7.05017 12.2308H7.05115C6.75704 11.91 6.37731 11.7504 5.93298 11.7504ZM27.267 11.7504C26.8231 11.7504 26.437 11.9095 26.1234 12.223C25.8275 12.5189 25.683 12.8961 25.683 13.3334C25.683 13.7707 25.8269 14.1541 26.1156 14.4691L26.1312 14.4847C26.4461 14.7733 26.8298 14.9164 27.267 14.9164C27.704 14.9163 28.0805 14.7726 28.3763 14.4769C28.69 14.1633 28.85 13.7773 28.85 13.3334C28.85 12.8961 28.6939 12.5229 28.3832 12.2308H28.3842C28.0901 11.9102 27.7111 11.7504 27.267 11.7504ZM16.6 7.75037C15.7983 7.75037 15.1015 8.04469 14.5228 8.62341C13.9643 9.18204 13.6831 9.86809 13.683 10.6664C13.683 11.4646 13.9638 12.1602 14.5189 12.7396L14.5267 12.7474C15.1062 13.3028 15.8017 13.5834 16.6 13.5834C17.3984 13.5834 18.0842 13.3021 18.6429 12.7435C19.2217 12.1648 19.517 11.4681 19.517 10.6664C19.5169 9.86448 19.2211 9.1773 18.639 8.61951C18.0825 8.04266 17.3984 7.75037 16.6 7.75037Z" fill="#f0f0f0" stroke="#CCCCCC" stroke-width="0.5"/>
</g>
<rect x="0.899902" y="0.5" width="32" height="31" rx="15.5" fill="#544C55"/>
<rect x="0.899902" y="0.5" width="31" height="31" rx="15.5" stroke="#544C55"/>
<defs>
<clipPath id="clip0_81_887">
<rect x="0.599976" width="32" height="32" rx="16" fill="#f6eef7df"/>
</clipPath>
</defs>
</svg>
