<svg width="33" height="32" viewBox="0 0 33 32" fill="none" xmlns="http://www.w3.org/2000/svg">
<path d="M16.7997 2.91663C18.6116 2.91663 20.3056 3.26027 21.8837 3.94592C23.4668 4.63374 24.8516 5.57203 26.04 6.76038C27.2282 7.94868 28.1666 9.33362 28.8544 10.9166C29.5399 12.4945 29.8837 14.188 29.8837 15.9996C29.8837 17.7889 29.5395 19.478 28.8535 21.068C28.1656 22.6619 27.2279 24.0519 26.04 25.2399C24.8516 26.4282 23.4668 27.3665 21.8837 28.0543C20.3057 28.7399 18.6116 29.0836 16.7997 29.0836C15.0106 29.0836 13.3222 28.7394 11.7324 28.0533C10.1384 27.3655 8.74846 26.4278 7.56049 25.2399C6.37249 24.0519 5.43391 22.662 4.74603 21.068C4.05996 19.478 3.71674 17.7889 3.71674 15.9996C3.71678 14.188 4.0605 12.4946 4.74603 10.9166C5.43385 9.33355 6.37214 7.94872 7.56049 6.76038C8.74855 5.57231 10.1382 4.63381 11.7324 3.94592C13.3222 3.25989 15.0106 2.91667 16.7997 2.91663ZM14.0253 21.399C14.2959 22.3911 14.6457 23.3282 15.0751 24.2096C15.5038 25.0895 16.0116 25.9354 16.5976 26.7467L16.7997 27.027L17.0029 26.7467C17.5888 25.9354 18.0957 25.0894 18.5244 24.2096C18.9537 23.3282 19.3036 22.3911 19.5742 21.399L19.6611 21.0836H13.9394L14.0253 21.399ZM7.38373 21.4586C8.04219 22.5939 8.86598 23.5826 9.85443 24.4235C10.8469 25.2676 11.982 25.8946 13.2568 26.3043L13.8525 26.4957L13.5527 25.9469C13.1582 25.2236 12.8135 24.4723 12.5175 23.694C12.2216 22.9157 11.9738 22.11 11.7763 21.276L11.7314 21.0836H7.16595L7.38373 21.4586ZM21.8232 21.276C21.6257 22.1099 21.3789 22.9158 21.0829 23.694C20.7869 24.4724 20.4413 25.2236 20.0468 25.9469L19.748 26.4957L20.3437 26.3043C21.6183 25.8946 22.7527 25.2675 23.7451 24.4235C24.7336 23.5826 25.5582 22.594 26.2167 21.4586L26.4345 21.0836H21.8691L21.8232 21.276ZM6.22455 13.2731C6.11125 13.7263 6.02554 14.1745 5.96869 14.6178C5.91171 15.0623 5.88374 15.5232 5.88373 15.9996C5.88373 16.4761 5.91172 16.937 5.96869 17.3815C6.02555 17.825 6.11118 18.2737 6.22455 18.7272L6.27142 18.9166H11.29L11.247 18.6295C11.1812 18.1908 11.1324 17.7578 11.0995 17.3307C11.0667 16.9042 11.0497 16.4603 11.0497 15.9996C11.0498 15.5392 11.0668 15.0958 11.0995 14.6696C11.1324 14.2425 11.1812 13.8093 11.247 13.3707L11.29 13.0836H6.27142L6.22455 13.2731ZM13.4199 13.2965C13.3524 13.7465 13.3013 14.1911 13.2675 14.6305C13.2337 15.0706 13.2167 15.5271 13.2167 15.9996C13.2167 16.4721 13.2337 16.9287 13.2675 17.3688C13.3013 17.8083 13.3523 18.2535 13.4199 18.7037L13.4511 18.9166H20.1484L20.1806 18.7037C20.2481 18.2535 20.2991 17.8083 20.3329 17.3688C20.3668 16.9287 20.3837 16.4721 20.3837 15.9996C20.3837 15.5271 20.3668 15.0706 20.3329 14.6305C20.2991 14.1911 20.2481 13.7465 20.1806 13.2965L20.1484 13.0836H13.4511L13.4199 13.2965ZM22.3525 13.3707C22.4183 13.8093 22.4681 14.2425 22.5009 14.6696C22.5337 15.0958 22.5497 15.5392 22.5497 15.9996C22.5497 16.4603 22.5337 16.9042 22.5009 17.3307C22.4681 17.7578 22.4183 18.1908 22.3525 18.6295L22.3095 18.9166H27.329L27.3759 18.7272C27.4893 18.2737 27.5749 17.8249 27.6318 17.3815C27.6887 16.937 27.7167 16.4761 27.7167 15.9996C27.7167 15.5232 27.6888 15.0623 27.6318 14.6178C27.5749 14.1745 27.4892 13.7263 27.3759 13.2731L27.329 13.0836H22.3095L22.3525 13.3707ZM13.2568 5.69495C11.982 6.10471 10.8469 6.73161 9.85443 7.57581C8.86584 8.41668 8.04226 9.40622 7.38373 10.5416L7.16595 10.9166H11.7314L11.7763 10.7242C11.9739 9.89011 12.2215 9.08371 12.5175 8.3053C12.8135 7.52713 13.1583 6.77642 13.5527 6.05334L13.8525 5.50354L13.2568 5.69495ZM16.5976 5.25354C16.0116 6.0649 15.5038 6.91078 15.0751 7.79065C14.6458 8.67197 14.2959 9.60922 14.0253 10.6012L13.9394 10.9166H19.6611L19.5742 10.6012C19.3036 9.60913 18.9537 8.67204 18.5244 7.79065C18.0957 6.9108 17.5888 6.06488 17.0029 5.25354L16.7997 4.97327L16.5976 5.25354ZM20.0468 6.05334C20.4413 6.77654 20.787 7.52699 21.0829 8.3053C21.379 9.08369 21.6256 9.89014 21.8232 10.7242L21.8691 10.9166H26.4345L26.2167 10.5416C25.5582 9.40622 24.7336 8.41668 23.7451 7.57581C22.7527 6.73184 21.6182 6.10466 20.3437 5.69495L19.748 5.50354L20.0468 6.05334Z" fill="#1D1B20" stroke="#CCCCCC" stroke-width="0.5"/>
</svg>
