<svg width="32" height="32" viewBox="0 0 32 32" fill="none" xmlns="http://www.w3.org/2000/svg">
<rect x="0" y="0" width="32" height="32" rx="15.5" fill="#544C55"/>

<g transform="translate(0, 0) scale(0.85)"><path d="M27.95 8.25V13.083H22.617V26.667C22.6169 28.0667 22.1207 29.259 21.1228 30.2568C20.125 31.2546 18.9327 31.75 17.533 31.75C16.1333 31.7499 14.941 31.2547 13.9432 30.2568C12.9453 29.259 12.4501 28.0667 12.45 26.667C12.45 25.2673 12.9454 24.075 13.9432 23.0771C14.941 22.0793 16.1333 21.5831 17.533 21.583C18.0224 21.583 18.4638 21.6469 18.8582 21.7715L18.865 21.7744L18.8728 21.7754C19.2921 21.8802 19.6912 22.0487 20.0701 22.2803L20.45 22.5127V8.25H27.95Z" fill="#f6eef7df" stroke="#EBEAEA" stroke-width="0.5"/> </g>
</svg>
