<svg width="17" height="24" viewBox="0 0 17 24" fill="none" xmlns="http://www.w3.org/2000/svg">
<path d="M15.95 0.25V5.08301H10.6169V18.667C10.6169 20.0667 10.1207 21.259 9.1228 22.2568C8.12493 23.2546 6.93264 23.75 5.53296 23.75C4.13326 23.7499 2.94097 23.2547 1.94312 22.2568C0.945257 21.259 0.450028 20.0667 0.449951 18.667C0.449951 17.2673 0.945398 16.075 1.94312 15.0771C2.94097 14.0793 4.13326 13.5831 5.53296 13.583C6.02239 13.583 6.46371 13.6469 6.85815 13.7715L6.86499 13.7744L6.8728 13.7754C7.29207 13.8802 7.6912 14.0487 8.07007 14.2803L8.44995 14.5127V0.25H15.95Z" fill="#1D1B20" stroke="#EBEAEA" stroke-width="0.5"/>
</svg>
