<svg width="32" height="32" viewBox="0 0 32 32" fill="none" xmlns="http://www.w3.org/2000/svg">
<rect x="0" y="0" width="32" height="32" rx="15.5" fill="#544C55"/>
<path d="M15.9996 2.91663C17.8115 2.91663 19.5116 3.26001 21.1012 3.94592C22.6956 4.63392 24.0798 5.56707 25.2565 6.74377C26.4331 7.92045 27.3654 9.30475 28.0533 10.899C28.7392 12.4885 29.0836 14.1878 29.0836 15.9996C29.0836 17.8115 28.7393 19.5116 28.0533 21.1012C27.3654 22.6955 26.4331 24.0798 25.2565 25.2565C24.0798 26.4331 22.6955 27.3654 21.1012 28.0533C19.5116 28.7393 17.8115 29.0836 15.9996 29.0836C14.1878 29.0836 12.4885 28.7392 10.899 28.0533C9.30475 27.3654 7.92045 26.4331 6.74377 25.2565C5.56707 24.0798 4.63392 22.6956 3.94592 21.1012C3.26001 19.5116 2.91663 17.8115 2.91663 15.9996C2.91667 14.1879 3.26009 12.4885 3.94592 10.899C4.63393 9.30462 5.56703 7.92052 6.74377 6.74377C7.92052 5.56703 9.30462 4.63393 10.899 3.94592C12.4885 3.26009 14.1879 2.91667 15.9996 2.91663ZM15.9996 5.08362C12.9571 5.08369 10.3709 6.14201 8.25647 8.25647C6.14201 10.3709 5.08369 12.9571 5.08362 15.9996C5.08362 19.0423 6.14194 21.6292 8.25647 23.7438C10.3709 25.8581 12.9572 26.9166 15.9996 26.9166C19.0423 26.9166 21.6292 25.8583 23.7438 23.7438C25.8583 21.6292 26.9166 19.0423 26.9166 15.9996C26.9166 12.9572 25.8581 10.3709 23.7438 8.25647C21.6292 6.14194 19.0423 5.08362 15.9996 5.08362ZM15.9996 9.58362C17.7779 9.58362 19.2868 10.2069 20.5397 11.4596C21.7925 12.7125 22.4166 14.2214 22.4166 15.9996C22.4166 17.778 21.7926 19.2867 20.5397 20.5397C19.2867 21.7926 17.778 22.4166 15.9996 22.4166C14.2214 22.4166 12.7125 21.7925 11.4596 20.5397C10.2069 19.2868 9.58362 17.7779 9.58362 15.9996C9.58369 14.2214 10.2067 12.7125 11.4596 11.4596C12.7125 10.2067 14.2214 9.58369 15.9996 9.58362Z" fill="#f6eef7df" stroke="#CCCCCC" stroke-width="0.5"/>
</svg>
