<svg width="32" height="32" viewBox="0 0 32 32" fill="none" xmlns="http://www.w3.org/2000/svg">
<path d="M15.9997 2.91663C17.8116 2.91663 19.5117 3.26001 21.1012 3.94592C22.6956 4.63392 24.0798 5.56707 25.2565 6.74377C26.4331 7.92045 27.3654 9.30475 28.0534 10.899C28.7392 12.4885 29.0836 14.1878 29.0836 15.9996C29.0836 17.8115 28.7393 19.5116 28.0534 21.1012C27.3654 22.6955 26.4331 24.0798 25.2565 25.2565C24.0799 26.4331 22.6955 27.3654 21.1012 28.0533C19.5117 28.7393 17.8116 29.0836 15.9997 29.0836C14.1879 29.0836 12.4886 28.7392 10.8991 28.0533C9.30478 27.3654 7.92048 26.4331 6.7438 25.2565C5.5671 24.0798 4.63395 22.6956 3.94595 21.1012C3.26004 19.5116 2.91666 17.8115 2.91666 15.9996C2.9167 14.1879 3.26012 12.4885 3.94595 10.899C4.63396 9.30462 5.56706 7.92052 6.7438 6.74377C7.92055 5.56703 9.30465 4.63393 10.8991 3.94592C12.4885 3.26009 14.1879 2.91667 15.9997 2.91663ZM15.9997 5.08362C12.9571 5.08369 10.371 6.14201 8.2565 8.25647C6.14204 10.3709 5.08372 12.9571 5.08365 15.9996C5.08365 19.0423 6.14197 21.6292 8.2565 23.7438C10.3709 25.8581 12.9572 26.9166 15.9997 26.9166C19.0423 26.9166 21.6293 25.8583 23.7438 23.7438C25.8583 21.6292 26.9167 19.0423 26.9167 15.9996C26.9166 12.9572 25.8582 10.3709 23.7438 8.25647C21.6293 6.14194 19.0423 5.08362 15.9997 5.08362ZM15.9997 9.58362C17.7779 9.58362 19.2868 10.2069 20.5397 11.4596C21.7926 12.7125 22.4166 14.2214 22.4167 15.9996C22.4167 17.778 21.7926 19.2867 20.5397 20.5397C19.2868 21.7926 17.778 22.4166 15.9997 22.4166C14.2214 22.4166 12.7125 21.7925 11.4596 20.5397C10.2069 19.2868 9.58365 17.7779 9.58365 15.9996C9.58372 14.2214 10.2068 12.7125 11.4596 11.4596C12.7125 10.2067 14.2214 9.58369 15.9997 9.58362Z" fill="#1D1B20" stroke="#CCCCCC" stroke-width="0.5"/>
</svg>
