<svg width="28" height="28" viewBox="0 0 28 28" fill="none" xmlns="http://www.w3.org/2000/svg">
<path d="M13.7997 0.916626C15.6116 0.916626 17.3056 1.26027 18.8837 1.94592C20.4668 2.63374 21.8516 3.57203 23.0399 4.76038C24.2282 5.94868 25.1666 7.33362 25.8544 8.91663C26.5399 10.4945 26.8837 12.188 26.8837 13.9996C26.8837 15.7889 26.5395 17.478 25.8534 19.068C25.1656 20.6619 24.2279 22.0519 23.0399 23.2399C21.8516 24.4282 20.4668 25.3665 18.8837 26.0543C17.3056 26.7399 15.6116 27.0836 13.7997 27.0836C12.0106 27.0836 10.3222 26.7394 8.73233 26.0533C7.13835 25.3655 5.74843 24.4278 4.56046 23.2399C3.37246 22.0519 2.43388 20.662 1.746 19.068C1.05993 17.478 0.716705 15.7889 0.716705 13.9996C0.716746 12.188 1.06047 10.4946 1.746 8.91663C2.43382 7.33355 3.37211 5.94872 4.56046 4.76038C5.74852 3.57231 7.13819 2.63381 8.73233 1.94592C10.3222 1.25989 12.0106 0.916668 13.7997 0.916626ZM11.0253 19.399C11.2959 20.3911 11.6457 21.3282 12.0751 22.2096C12.5038 23.0895 13.0116 23.9354 13.5976 24.7467L13.7997 25.027L14.0028 24.7467C14.5888 23.9354 15.0957 23.0894 15.5243 22.2096C15.9537 21.3282 16.3036 20.3911 16.5741 19.399L16.661 19.0836H10.9394L11.0253 19.399ZM4.3837 19.4586C5.04216 20.5939 5.86595 21.5826 6.8544 22.4235C7.84685 23.2676 8.982 23.8946 10.2567 24.3043L10.8524 24.4957L10.5526 23.9469C10.1581 23.2236 9.81349 22.4723 9.51749 21.694C9.22154 20.9157 8.9738 20.11 8.77628 19.276L8.73135 19.0836H4.16592L4.3837 19.4586ZM18.8232 19.276C18.6256 20.1099 18.3788 20.9158 18.0829 21.694C17.7869 22.4724 17.4413 23.2236 17.0468 23.9469L16.748 24.4957L17.3437 24.3043C18.6183 23.8946 19.7527 23.2675 20.745 22.4235C21.7336 21.5826 22.5582 20.594 23.2167 19.4586L23.4345 19.0836H18.869L18.8232 19.276ZM3.22452 11.2731C3.11121 11.7263 3.0255 12.1745 2.96866 12.6178C2.91168 13.0623 2.88371 13.5232 2.8837 13.9996C2.8837 14.4761 2.91169 14.937 2.96866 15.3815C3.02552 15.825 3.11115 16.2737 3.22452 16.7272L3.27139 16.9166H8.28995L8.24698 16.6295C8.18118 16.1908 8.13237 15.7578 8.09952 15.3307C8.06671 14.9042 8.04971 14.4603 8.04971 13.9996C8.04972 13.5392 8.06674 13.0958 8.09952 12.6696C8.13237 12.2425 8.1812 11.8093 8.24698 11.3707L8.28995 11.0836H3.27139L3.22452 11.2731ZM10.4198 11.2965C10.3523 11.7465 10.3013 12.1911 10.2675 12.6305C10.2336 13.0706 10.2167 13.5271 10.2167 13.9996C10.2167 14.4721 10.2336 14.9287 10.2675 15.3688C10.3013 15.8083 10.3523 16.2535 10.4198 16.7037L10.4511 16.9166H17.1483L17.1806 16.7037C17.2481 16.2535 17.2991 15.8083 17.3329 15.3688C17.3668 14.9287 17.3837 14.4721 17.3837 13.9996C17.3837 13.5271 17.3668 13.0706 17.3329 12.6305C17.2991 12.1911 17.2481 11.7465 17.1806 11.2965L17.1483 11.0836H10.4511L10.4198 11.2965ZM19.3524 11.3707C19.4182 11.8093 19.468 12.2425 19.5009 12.6696C19.5337 13.0958 19.5497 13.5392 19.5497 13.9996C19.5497 14.4603 19.5337 14.9042 19.5009 15.3307C19.468 15.7578 19.4183 16.1908 19.3524 16.6295L19.3095 16.9166H24.329L24.3759 16.7272C24.4892 16.2737 24.5749 15.8249 24.6317 15.3815C24.6887 14.937 24.7167 14.4761 24.7167 13.9996C24.7167 13.5232 24.6887 13.0623 24.6317 12.6178C24.5749 12.1745 24.4892 11.7263 24.3759 11.2731L24.329 11.0836H19.3095L19.3524 11.3707ZM10.2567 3.69495C8.98192 4.10471 7.8469 4.73161 6.8544 5.57581C5.86581 6.41668 5.04223 7.40622 4.3837 8.54163L4.16592 8.91663H8.73135L8.77628 8.72424C8.97383 7.89011 9.22147 7.08371 9.51749 6.3053C9.81343 5.52713 10.1583 4.77642 10.5526 4.05334L10.8524 3.50354L10.2567 3.69495ZM13.5976 3.25354C13.0116 4.0649 12.5038 4.91078 12.0751 5.79065C11.6458 6.67197 11.2958 7.60922 11.0253 8.6012L10.9394 8.91663H16.661L16.5741 8.6012C16.3036 7.60913 15.9537 6.67204 15.5243 5.79065C15.0957 4.9108 14.5888 4.06488 14.0028 3.25354L13.7997 2.97327L13.5976 3.25354ZM17.0468 4.05334C17.4412 4.77654 17.7869 5.52699 18.0829 6.3053C18.3789 7.08369 18.6256 7.89014 18.8232 8.72424L18.869 8.91663H23.4345L23.2167 8.54163C22.5582 7.40622 21.7336 6.41668 20.745 5.57581C19.7527 4.73184 18.6182 4.10466 17.3437 3.69495L16.748 3.50354L17.0468 4.05334Z" fill="#1D1B20" stroke="#CCCCCC" stroke-width="0.5"/>
</svg>
