<svg width="33" height="32" viewBox="0 0 33 32" fill="none" xmlns="http://www.w3.org/2000/svg">
<rect x="1.30005" y="0.5" width="31" height="31" rx="15.5" fill="white"/>
<rect x="1.30005" y="0.5" width="31" height="31" rx="15.5" stroke="white"/>
<path d="M16.7997 2.91663C18.6116 2.91663 20.3056 3.26027 21.8837 3.94592C23.4667 4.63374 24.8516 5.57203 26.0399 6.76038C27.2282 7.94868 28.1666 9.33362 28.8544 10.9166C29.5399 12.4945 29.8836 14.188 29.8837 15.9996C29.8837 17.7889 29.5395 19.478 28.8534 21.068C28.1655 22.6619 27.2279 24.0519 26.0399 25.2399C24.8516 26.4282 23.4667 27.3665 21.8837 28.0543C20.3056 28.7399 18.6115 29.0836 16.7997 29.0836C15.0106 29.0836 13.3222 28.7394 11.7323 28.0533C10.1383 27.3655 8.74839 26.4278 7.56042 25.2399C6.37243 24.0519 5.43385 22.662 4.74597 21.068C4.05989 19.478 3.71667 17.7889 3.71667 15.9996C3.71672 14.188 4.06044 12.4946 4.74597 10.9166C5.43379 9.33355 6.37208 7.94872 7.56042 6.76038C8.74849 5.57231 10.1382 4.63381 11.7323 3.94592C13.3222 3.25989 15.0106 2.91667 16.7997 2.91663ZM14.0253 21.399C14.2958 22.3911 14.6457 23.3282 15.0751 24.2096C15.5037 25.0895 16.0116 25.9354 16.5975 26.7467L16.7997 27.027L17.0028 26.7467C17.5887 25.9354 18.0957 25.0894 18.5243 24.2096C18.9537 23.3282 19.3035 22.3911 19.5741 21.399L19.661 21.0836H13.9393L14.0253 21.399ZM7.38367 21.4586C8.04213 22.5939 8.86592 23.5826 9.85437 24.4235C10.8468 25.2676 11.982 25.8946 13.2567 26.3043L13.8524 26.4957L13.5526 25.9469C13.1581 25.2236 12.8135 24.4723 12.5175 23.694C12.2215 22.9157 11.9738 22.11 11.7762 21.276L11.7313 21.0836H7.16589L7.38367 21.4586ZM21.8231 21.276C21.6256 22.1099 21.3788 22.9158 21.0829 23.694C20.7869 24.4724 20.4413 25.2236 20.0468 25.9469L19.7479 26.4957L20.3436 26.3043C21.6182 25.8946 22.7526 25.2675 23.745 24.4235C24.7336 23.5826 25.5581 22.594 26.2167 21.4586L26.4344 21.0836H21.869L21.8231 21.276ZM6.22449 13.2731C6.11118 13.7263 6.02547 14.1745 5.96863 14.6178C5.91165 15.0623 5.88368 15.5232 5.88367 15.9996C5.88367 16.4761 5.91166 16.937 5.96863 17.3815C6.02549 17.825 6.11112 18.2737 6.22449 18.7272L6.27136 18.9166H11.2899L11.2469 18.6295C11.1811 18.1908 11.1323 17.7578 11.0995 17.3307C11.0667 16.9042 11.0497 16.4603 11.0497 15.9996C11.0497 15.5392 11.0667 15.0958 11.0995 14.6696C11.1323 14.2425 11.1812 13.8093 11.2469 13.3707L11.2899 13.0836H6.27136L6.22449 13.2731ZM13.4198 13.2965C13.3523 13.7465 13.3013 14.1911 13.2675 14.6305C13.2336 15.0706 13.2167 15.5271 13.2167 15.9996C13.2167 16.4721 13.2336 16.9287 13.2675 17.3688C13.3013 17.8083 13.3523 18.2535 13.4198 18.7037L13.451 18.9166H20.1483L20.1805 18.7037C20.2481 18.2535 20.2991 17.8083 20.3329 17.3688C20.3667 16.9287 20.3837 16.4721 20.3837 15.9996C20.3837 15.5271 20.3667 15.0706 20.3329 14.6305C20.2991 14.1911 20.248 13.7465 20.1805 13.2965L20.1483 13.0836H13.451L13.4198 13.2965ZM22.3524 13.3707C22.4182 13.8093 22.468 14.2425 22.5009 14.6696C22.5336 15.0958 22.5497 15.5392 22.5497 15.9996C22.5497 16.4603 22.5337 16.9042 22.5009 17.3307C22.468 17.7578 22.4182 18.1908 22.3524 18.6295L22.3094 18.9166H27.329L27.3759 18.7272C27.4892 18.2737 27.5749 17.8249 27.6317 17.3815C27.6887 16.937 27.7167 16.4761 27.7167 15.9996C27.7167 15.5232 27.6887 15.0623 27.6317 14.6178C27.5749 14.1745 27.4892 13.7263 27.3759 13.2731L27.329 13.0836H22.3094L22.3524 13.3707ZM13.2567 5.69495C11.9819 6.10471 10.8469 6.73161 9.85437 7.57581C8.86578 8.41668 8.0422 9.40622 7.38367 10.5416L7.16589 10.9166H11.7313L11.7762 10.7242C11.9738 9.89011 12.2214 9.08371 12.5175 8.3053C12.8134 7.52713 13.1582 6.77642 13.5526 6.05334L13.8524 5.50354L13.2567 5.69495ZM16.5975 5.25354C16.0116 6.0649 15.5037 6.91078 15.0751 7.79065C14.6457 8.67197 14.2958 9.60922 14.0253 10.6012L13.9393 10.9166H19.661L19.5741 10.6012C19.3035 9.60913 18.9537 8.67204 18.5243 7.79065C18.0956 6.9108 17.5888 6.06488 17.0028 5.25354L16.7997 4.97327L16.5975 5.25354ZM20.0468 6.05334C20.4412 6.77654 20.7869 7.52699 21.0829 8.3053C21.3789 9.08369 21.6256 9.89014 21.8231 10.7242L21.869 10.9166H26.4344L26.2167 10.5416C25.5581 9.40622 24.7336 8.41668 23.745 7.57581C22.7527 6.73184 21.6182 6.10466 20.3436 5.69495L19.7479 5.50354L20.0468 6.05334Z" fill="#1D1B20" stroke="#CCCCCC" stroke-width="0.5"/>
</svg>
