<svg width="28" height="28" viewBox="0 0 28 28" fill="none" xmlns="http://www.w3.org/2000/svg">
<path d="M13.9997 0.916626C15.8116 0.916626 17.5117 1.26001 19.1012 1.94592C20.6956 2.63392 22.0798 3.56707 23.2565 4.74377C24.4331 5.92045 25.3654 7.30475 26.0534 8.89905C26.7392 10.4885 27.0836 12.1878 27.0836 13.9996C27.0836 15.8115 26.7393 17.5116 26.0534 19.1012C25.3654 20.6955 24.4331 22.0798 23.2565 23.2565C22.0799 24.4331 20.6955 25.3654 19.1012 26.0533C17.5117 26.7393 15.8116 27.0836 13.9997 27.0836C12.1879 27.0836 10.4886 26.7392 8.89908 26.0533C7.30478 25.3654 5.92048 24.4331 4.7438 23.2565C3.5671 22.0798 2.63395 20.6956 1.94595 19.1012C1.26004 17.5116 0.916656 15.8115 0.916656 13.9996C0.916698 12.1879 1.26012 10.4885 1.94595 8.89905C2.63396 7.30462 3.56706 5.92052 4.7438 4.74377C5.92055 3.56703 7.30465 2.63393 8.89908 1.94592C10.4885 1.26009 12.1879 0.916667 13.9997 0.916626ZM13.9997 3.08362C10.9571 3.08369 8.37096 4.14201 6.2565 6.25647C4.14204 8.37093 3.08372 10.9571 3.08365 13.9996C3.08365 17.0423 4.14197 19.6292 6.2565 21.7438C8.37093 23.8581 10.9572 24.9166 13.9997 24.9166C17.0423 24.9166 19.6293 23.8583 21.7438 21.7438C23.8583 19.6292 24.9167 17.0423 24.9167 13.9996C24.9166 10.9572 23.8582 8.3709 21.7438 6.25647C19.6293 4.14194 17.0423 3.08362 13.9997 3.08362ZM13.9997 7.58362C15.7779 7.58362 17.2868 8.20687 18.5397 9.45959C19.7926 10.7125 20.4166 12.2214 20.4167 13.9996C20.4167 15.778 19.7926 17.2867 18.5397 18.5397C17.2868 19.7926 15.778 20.4166 13.9997 20.4166C12.2214 20.4166 10.7125 19.7925 9.45963 18.5397C8.2069 17.2868 7.58365 15.7779 7.58365 13.9996C7.58372 12.2214 8.20676 10.7125 9.45963 9.45959C10.7125 8.20673 12.2214 7.58369 13.9997 7.58362Z" fill="#f6eef7df" stroke="#CCCCCC" stroke-width="0.5"/>
</svg>
